<svg width="160" height="50" viewBox="0 0 160 50" fill="none" xmlns="http://www.w3.org/2000/svg">
<path d="M0 29C0 17.9543 8.95431 9 20 9V15C20 26.0457 11.0457 35 0 35V29Z" fill="#28E3E9"/>
<path d="M47.2935 35.18V31.076H53.8815C55.0815 31.076 55.9935 30.752 56.6175 30.104C57.2415 29.432 57.5535 28.52 57.5535 27.368C57.5535 26.216 57.2415 25.328 56.6175 24.704C55.9935 24.056 55.0815 23.732 53.8815 23.732H47.2935V20.6H53.5215C55.2735 20.6 56.8335 20.816 58.2015 21.248C59.5935 21.656 60.6735 22.352 61.4415 23.336C62.2335 24.32 62.6295 25.64 62.6295 27.296V27.8C62.6295 29.36 62.2815 30.692 61.5855 31.796C60.9135 32.876 59.8935 33.716 58.5255 34.316C57.1815 34.892 55.5135 35.18 53.5215 35.18H47.2935ZM43.0095 35.18V8.54H48.0135V35.18H43.0095ZM47.2935 22.904V19.772H52.9095C54.1335 19.772 55.0335 19.448 55.6095 18.8C56.1855 18.152 56.4735 17.288 56.4735 16.208C56.4735 15.128 56.1855 14.264 55.6095 13.616C55.0335 12.968 54.1335 12.644 52.9095 12.644H47.2935V8.54H52.4415C55.4175 8.54 57.6735 9.164 59.2095 10.412C60.7695 11.66 61.5495 13.448 61.5495 15.776V16.28C61.5495 17.912 61.1535 19.22 60.3615 20.204C59.5935 21.164 58.5255 21.86 57.1575 22.292C55.7895 22.7 54.2175 22.904 52.4415 22.904H47.2935ZM67.6507 35V8.72H72.6547V35H67.6507ZM65.2027 12.464V8.72H72.6547V12.464H65.2027ZM85.0274 35.612C82.7714 35.612 81.0194 34.868 79.7714 33.38C78.5474 31.892 77.9354 29.684 77.9354 26.756V15.416H82.9394V27.188C82.9394 28.388 83.2754 29.348 83.9474 30.068C84.6194 30.764 85.5314 31.112 86.6834 31.112C87.8354 31.112 88.7714 30.74 89.4914 29.996C90.2354 29.252 90.6074 28.244 90.6074 26.972V15.416H95.6114V35H91.6514V26.684H92.0474C92.0474 28.652 91.7954 30.296 91.2914 31.616C90.7874 32.936 90.0314 33.932 89.0234 34.604C88.0154 35.276 86.7554 35.612 85.2434 35.612H85.0274ZM83.0114 12.14C82.0514 12.14 81.3434 11.876 80.8874 11.348C80.4554 10.82 80.2394 10.172 80.2394 9.404C80.2394 8.636 80.4554 8 80.8874 7.496C81.3434 6.968 82.0514 6.704 83.0114 6.704C83.9954 6.704 84.7034 6.968 85.1354 7.496C85.5674 8 85.7834 8.636 85.7834 9.404C85.7834 10.172 85.5674 10.82 85.1354 11.348C84.7034 11.876 83.9954 12.14 83.0114 12.14ZM90.5714 12.14C89.6114 12.14 88.9034 11.876 88.4474 11.348C88.0154 10.82 87.7994 10.172 87.7994 9.404C87.7994 8.636 88.0154 8 88.4474 7.496C88.9034 6.968 89.6114 6.704 90.5714 6.704C91.5554 6.704 92.2634 6.968 92.6954 7.496C93.1274 8 93.3434 8.636 93.3434 9.404C93.3434 10.172 93.1274 10.82 92.6954 11.348C92.2634 11.876 91.5554 12.14 90.5714 12.14ZM109.856 35.252C108.056 35.252 106.568 35.024 105.392 34.568C104.24 34.088 103.376 33.296 102.8 32.192C102.224 31.064 101.936 29.552 101.936 27.656L101.972 9.944H106.652L106.616 27.98C106.616 28.94 106.868 29.684 107.372 30.212C107.9 30.716 108.644 30.968 109.604 30.968H112.664V35.252H109.856ZM98.8396 19.124V15.452H112.664V19.124H98.8396ZM125.506 35.684C123.826 35.684 122.35 35.396 121.078 34.82C119.83 34.244 118.786 33.476 117.946 32.516C117.13 31.532 116.506 30.44 116.074 29.24C115.666 28.04 115.462 26.816 115.462 25.568V24.884C115.462 23.588 115.666 22.34 116.074 21.14C116.506 19.916 117.13 18.836 117.946 17.9C118.786 16.94 119.818 16.184 121.042 15.632C122.266 15.056 123.682 14.768 125.29 14.768C127.402 14.768 129.166 15.236 130.582 16.172C132.022 17.084 133.102 18.296 133.822 19.808C134.542 21.296 134.902 22.904 134.902 24.632V26.432H117.586V23.372H131.77L130.222 24.884C130.222 23.636 130.042 22.568 129.682 21.68C129.322 20.792 128.77 20.108 128.026 19.628C127.306 19.148 126.394 18.908 125.29 18.908C124.186 18.908 123.25 19.16 122.482 19.664C121.714 20.168 121.126 20.9 120.718 21.86C120.334 22.796 120.142 23.924 120.142 25.244C120.142 26.468 120.334 27.56 120.718 28.52C121.102 29.456 121.69 30.2 122.482 30.752C123.274 31.28 124.282 31.544 125.506 31.544C126.73 31.544 127.726 31.304 128.494 30.824C129.262 30.32 129.754 29.708 129.97 28.988H134.578C134.29 30.332 133.738 31.508 132.922 32.516C132.106 33.524 131.062 34.304 129.79 34.856C128.542 35.408 127.114 35.684 125.506 35.684ZM139.082 35V15.452H143.042V23.84H142.682C142.682 21.848 142.946 20.192 143.474 18.872C144.002 17.528 144.782 16.52 145.814 15.848C146.87 15.176 148.178 14.84 149.738 14.84H149.954C152.282 14.84 154.046 15.596 155.246 17.108C156.446 18.596 157.046 20.828 157.046 23.804V35H152.042V23.372C152.042 22.172 151.694 21.2 150.998 20.456C150.326 19.712 149.39 19.34 148.19 19.34C146.966 19.34 145.97 19.724 145.202 20.492C144.458 21.236 144.086 22.244 144.086 23.516V35H139.082Z" fill="#116A6C"/>
</svg>
